<svg xmlns="http://www.w3.org/2000/svg" width="32" height="32" viewBox="0 0 32 32">
  <rect width="32" height="32" rx="6" fill="#111111"/>
  <g transform="translate(6.89, 26) scale(0.028129, -0.028129)">
    <path d="M353 711 596 84Q611 48 628.5 34.5Q646 21 661 20V0Q635 2 598.5 2.5Q562 3 524 3Q480 3 442.0 2.5Q404 2 380 0V20Q431 22 445.0 37.5Q459 53 439 104L263 579L281 601L121 186Q102 136 98.0 104.0Q94 72 103.0 54.0Q112 36 133.0 28.5Q154 21 185 20V0Q153 2 123.0 2.5Q93 3 63 3Q41 3 21.5 2.5Q2 2 -13 0V20Q9 25 30.5 46.0Q52 67 72 119L301 711Q313 710 327.0 710.0Q341 710 353 711ZM440 288V268H142L152 288Z" fill="#ffffff"/>
  </g>
</svg>
